<svg width="354" height="243" viewBox="0 0 354 243" fill="none" xmlns="http://www.w3.org/2000/svg">
<path d="M15 55C20.2426 64.9028 24.3194 75.3103 29.1865 85.3571C32.022 91.2103 34.9543 97.0132 38.4722 102.582C39.1937 103.724 39.7701 105.285 41 106M21 34.4155C25.6896 29.7313 32.1686 27.1169 38.0204 24.402C51.1282 18.3207 65.3566 13.6582 79.5426 11.1958C84.5536 10.326 89.7914 9.86504 94.8796 10.0348C98.1918 10.1454 99.8051 12.2437 101.145 15.1142C108.648 31.1833 116.64 47.1234 119.381 64.9881C120.196 70.2995 122 75.6108 122 81M228 21C227.202 24.3103 227.071 27.7766 226.513 31.1233C225.048 39.9078 223.45 48.7256 222.744 57.5799C222.472 60.9891 222.462 64.3953 222.462 67.8095C222.462 68.5367 222.823 69.6587 222 70M244 10C246.395 10 248.78 10.5088 251.158 10.7254C261.042 11.6258 270.898 11.9412 280.751 13.2644C291.208 14.6686 302.85 15.818 312.506 20.1558C316.129 21.7838 319.344 24.1178 319.904 28.0447C320.522 32.3813 317.999 37.5098 316.877 41.6009C314.859 48.961 312.673 56.2242 310.344 63.4994C308.639 68.8238 308.1 76.5087 304.531 81M142 76C153.519 68.8374 167.472 66.7557 180.445 66.3584C182.197 66.3047 197 64.6228 197 69.0395M31.3501 126C30.2168 126.133 28.8828 128.344 28.3593 129.087C24.8981 134.001 21.5136 138.951 18.8291 144.287C10.8609 160.126 7.88909 178.308 11.5548 195.586C14.1387 207.765 19.679 218.744 28.1312 228.361C29.5687 229.996 31.0627 231.294 32.7188 232.683C33.6397 233.455 34.1865 232.653 35 232.018M314 101C314.837 101.223 316.526 104.271 317.083 104.947C320.918 109.6 324.458 113.86 327.345 119.278C336.061 135.637 341.848 153.491 343.64 172.328C344.967 186.274 342.669 200.224 335.977 212.362C335.304 213.582 330.213 222.773 328.666 221.948M103.486 137C101.167 142.65 99.8028 149.107 102.443 155.061C104.429 159.541 109.16 155.33 110.182 151.771C111.303 147.871 111.741 140.086 108.348 137.869C107.855 137.547 106.303 137.067 106.903 138.396C107.075 138.778 107.238 139.156 107.392 139.533M107.392 139.533C108.069 141.193 108.575 142.842 108.961 144.708M107.392 139.533C107.171 139.629 106.933 139.822 106.698 140.063M107.392 139.533C107.657 139.417 107.897 139.444 108.073 139.7C108.922 140.935 109.168 142.951 108.961 144.708M108.961 144.708C109.024 145.008 109.083 145.314 109.139 145.627C109.57 148.021 109.347 150.368 107.981 152.175C106.925 153.572 105.976 151.417 105.55 150.344C104.638 148.044 104.21 144.444 105.275 142.089C105.426 141.756 106.049 140.729 106.698 140.063M108.961 144.708C108.885 145.357 108.747 145.97 108.554 146.496C108.357 147.035 106.333 150.803 105.963 148.979C105.356 145.983 105.938 142.891 106.698 140.063M106.698 140.063C106.75 139.868 106.804 139.675 106.857 139.483C107.139 138.474 107.125 138.676 106.376 138.676M230.733 132.774C229.739 132.873 229.184 134.794 228.96 135.435C228.294 137.336 227.776 139.741 228.099 141.735C228.28 142.857 228.778 144.647 229.543 145.579C230.254 146.446 231.892 145.75 232.735 145.466C235.843 144.419 237.674 142.347 237.98 139.324C238.257 136.589 235.657 133.945 233.47 132.296C232.585 131.628 233.283 132.241 233.52 132.66C234.393 134.198 234.666 135.762 234.787 137.482L234.789 137.51C234.915 139.288 235.24 143.889 232.051 143.828C228.469 143.76 228.574 138.783 229.948 136.845C230.978 135.392 230.961 137.184 230.961 137.891M167 195.69C169.854 198.495 173.14 200.535 176.934 201.867C178.664 202.474 180.378 200.863 181.698 199.874C185.298 197.179 189.012 195.09 193 193" stroke="white" stroke-width="20" stroke-linecap="round"/>
</svg>
